<?xml version="1.0" encoding="utf-8"?>
<!-- Generator: Adobe Illustrator 18.1.1, SVG Export Plug-In . SVG Version: 6.00 Build 0)  -->
<svg version="1.1" id="Layer_1" xmlns="http://www.w3.org/2000/svg" xmlns:xlink="http://www.w3.org/1999/xlink" x="0px" y="0px"
	 viewBox="0 0 792 612" enable-background="new 0 0 792 612" xml:space="preserve">
<g>
	<rect x="159.5" y="69.5" fill="none" width="472.9" height="472.9"/>
</g>
<g>
	<rect x="159.5" y="69.5" fill="none" width="472.9" height="472.9"/>
	<polyline fill="none" points="465.6,115.5 300,306 465.6,493.8 	"/>
	<path d="M465.6,503.8c2.3,0,4.7-0.8,6.6-2.5c4.1-3.7,4.5-10,0.9-14.1L313.3,306l159.9-183.9c3.6-4.2,3.2-10.5-1-14.1
		c-4.2-3.6-10.5-3.2-14.1,1L292.5,299.4c-3.3,3.8-3.3,9.4,0,13.2l165.6,187.8C460.1,502.7,462.9,503.8,465.6,503.8z"/>
</g>
</svg>
