<?xml version="1.0" encoding="utf-8"?>
<!-- Generator: Adobe Illustrator 18.1.1, SVG Export Plug-In . SVG Version: 6.00 Build 0)  -->
<svg version="1.1" id="Layer_1" xmlns="http://www.w3.org/2000/svg" xmlns:xlink="http://www.w3.org/1999/xlink" x="0px" y="0px"
	 viewBox="0 0 792 612" enable-background="new 0 0 792 612" xml:space="preserve">
<g>
	<rect x="159.5" y="69.5" fill="none" width="472.9" height="472.9"/>
</g>
<g>
	<rect x="159.5" y="69.5" fill="none" width="472.9" height="472.9"/>
	<polyline fill="none" points="586.5,236.4 396,402 208.2,236.4 	"/>
	<path d="M198.2,236.4c0-2.3,0.8-4.7,2.5-6.6c3.7-4.1,10-4.5,14.1-0.9L396,388.7l183.9-159.9c4.2-3.6,10.5-3.2,14.1,1
		c3.6,4.2,3.2,10.5-1,14.1L402.6,409.5c-3.8,3.3-9.4,3.3-13.2,0L201.5,243.9C199.3,241.9,198.2,239.1,198.2,236.4z"/>
</g>
</svg>
