<?xml version="1.0" encoding="utf-8"?>
<!-- Generator: Adobe Illustrator 18.1.1, SVG Export Plug-In . SVG Version: 6.00 Build 0)  -->
<svg version="1.1" id="Layer_1" xmlns="http://www.w3.org/2000/svg" xmlns:xlink="http://www.w3.org/1999/xlink" x="0px" y="0px"
	 viewBox="296 386 20 20" enable-background="new 296 386 20 20" xml:space="preserve">
<g>
	<rect x="296" y="386" fill="none" width="20" height="20"/>
</g>
<g>
	<rect x="296" y="386" fill="none" width="20" height="20"/>
	<polyline fill="none" points="308.9,387.9 301.9,396 308.9,403.9 	"/>
	<path stroke="#000000" stroke-width="2" stroke-miterlimit="10" d="M308.9,404.3c0.1,0,0.2,0,0.3-0.1c0.2-0.2,0.2-0.4,0-0.6
		l-6.8-7.7l6.8-7.8c0.2-0.2,0.1-0.4,0-0.6c-0.2-0.2-0.4-0.1-0.6,0l-7,8.1c-0.1,0.2-0.1,0.4,0,0.6l7,7.9
		C308.7,404.3,308.8,404.3,308.9,404.3z"/>
</g>
</svg>
