<?xml version="1.0" encoding="utf-8"?>
<!-- Generator: Adobe Illustrator 18.1.1, SVG Export Plug-In . SVG Version: 6.00 Build 0)  -->
<svg version="1.1" id="Layer_1" xmlns="http://www.w3.org/2000/svg" xmlns:xlink="http://www.w3.org/1999/xlink" x="0px" y="0px"
	 viewBox="296 386 20 20" enable-background="new 296 386 20 20" xml:space="preserve">
<g>
	<rect x="296" y="386" fill="none" width="20" height="20"/>
</g>
<g>
	<rect x="296" y="386" fill="none" width="20" height="20"/>
	<polyline fill="none" points="297.9,398.9 306,391.9 313.9,398.9 	"/>
	<path stroke="#000000" stroke-width="2" stroke-miterlimit="10" d="M314.3,398.9c0,0.1,0,0.2-0.1,0.3c-0.2,0.2-0.4,0.2-0.6,0
		l-7.7-6.8l-7.8,6.8c-0.2,0.2-0.4,0.1-0.6,0c-0.2-0.2-0.1-0.4,0-0.6l8.1-7c0.2-0.1,0.4-0.1,0.6,0l7.9,7
		C314.3,398.7,314.3,398.8,314.3,398.9z"/>
</g>
</svg>
