<?xml version="1.0" encoding="utf-8"?>
<!-- Generator: Adobe Illustrator 17.1.0, SVG Export Plug-In . SVG Version: 6.00 Build 0)  -->
<!DOCTYPE svg PUBLIC "-//W3C//DTD SVG 1.1//EN" "http://www.w3.org/Graphics/SVG/1.1/DTD/svg11.dtd">
<svg version="1.1" id="Layer_1" xmlns="http://www.w3.org/2000/svg" xmlns:xlink="http://www.w3.org/1999/xlink" x="0px" y="0px"
	 viewBox="0 0 80 80" enable-background="new 0 0 80 80" xml:space="preserve">
<g>
	<g>
		<path fill="#202323" d="M50,50.8c-0.2,0-0.5,0-0.6-0.2l-19.8-20c-0.3-0.3-0.3-0.8,0-1.1s0.8-0.3,1.1,0l19.8,19.8
			c0.3,0.3,0.3,0.8,0,1.1C50.5,50.8,50.2,50.8,50,50.8z"/>
		<path fill="#202323" d="M30.2,50.8c-0.2,0-0.5,0-0.6-0.2c-0.3-0.3-0.3-0.8,0-1.1l19.8-19.8c0.3-0.3,0.8-0.3,1.1,0s0.3,0.8,0,1.1
			L30.6,50.6C30.5,50.8,30.3,50.8,30.2,50.8z"/>
	</g>
</g>
</svg>
