<?xml version="1.0" encoding="utf-8"?>
<!-- Generator: Adobe Illustrator 17.1.0, SVG Export Plug-In . SVG Version: 6.00 Build 0)  -->
<!DOCTYPE svg PUBLIC "-//W3C//DTD SVG 1.1//EN" "http://www.w3.org/Graphics/SVG/1.1/DTD/svg11.dtd">
<svg version="1.1" id="Layer_1" xmlns="http://www.w3.org/2000/svg" xmlns:xlink="http://www.w3.org/1999/xlink" x="0px" y="0px"
	 viewBox="0 0 36 36" enable-background="new 0 0 36 36" xml:space="preserve">
<g>
	<path fill="#202323" d="M24.2,24.7c-0.1,0-0.3,0-0.4-0.1L11.4,12.1c-0.2-0.2-0.2-0.5,0-0.7s0.5-0.2,0.7,0l12.4,12.4
		c0.2,0.2,0.2,0.5,0,0.7C24.5,24.7,24.3,24.7,24.2,24.7z"/>
	<path fill="#202323" d="M11.8,24.7c-0.1,0-0.3,0-0.4-0.1c-0.2-0.2-0.2-0.5,0-0.7l12.4-12.4c0.2-0.2,0.5-0.2,0.7,0s0.2,0.5,0,0.7
		L12.1,24.6C12,24.7,11.9,24.7,11.8,24.7z"/>
</g>
</svg>
