<?xml version="1.0" encoding="utf-8"?>
<!-- Generator: Adobe Illustrator 18.1.1, SVG Export Plug-In . SVG Version: 6.00 Build 0)  -->
<svg version="1.1" id="Layer_1" xmlns="http://www.w3.org/2000/svg" xmlns:xlink="http://www.w3.org/1999/xlink" x="0px" y="0px"
	 viewBox="0 0 612 792" enable-background="new 0 0 612 792" xml:space="preserve">
<symbol  id="New_Symbol_40" viewBox="-69.2 -52.8 138.4 105.6">
	<polygon fill="#CCCCCC" points="-68.9,22.8 -20.4,-5.1 -50.1,-52.5 	"/>
	<polygon fill="#CCCCCC" points="50.1,52.5 20.4,5.1 68.9,-22.8 	"/>
	<polygon fill="#999999" points="-68.9,22.8 -20.4,-5.1 20.4,5.1 50.1,52.5 	"/>
	<polygon fill="#FFFFFF" points="-50.1,-52.5 -20.4,-5.1 20.4,5.1 68.9,-22.8 	"/>
	<polygon fill="none" stroke="#4D4D4D" stroke-width="0.5" stroke-miterlimit="10" points="-68.9,22.8 -50.1,-52.5 68.9,-22.8 
		50.1,52.5 	"/>
	<g>
		<g>
			<polygon fill="#CCCCCC" stroke="#4D4D4D" stroke-width="0.5" stroke-miterlimit="10" points="11,10.8 14.7,-4.1 29.8,-0.6 
				26,14.3 			"/>
		</g>
		<g>
			<polygon fill="#333333" points="15.7,7.9 17.5,0.5 25.1,2.3 23.2,9.7 			"/>
		</g>
	</g>
</symbol>
<g id="ins_x5F_1" display="none">
	<rect y="243" display="inline" fill="#FFFFFF" stroke="#000000" stroke-miterlimit="10" width="612" height="306"/>
	
		<use xlink:href="#New_Symbol_40"  width="138.4" height="105.6" x="-69.2" y="-52.8" transform="matrix(2.1412 0 0 -2.1412 306.107 395.893)" display="inline" overflow="visible"/>
	<g display="inline">
		<g>
			<text transform="matrix(1 0 0 1 38.5338 314.725)" fill="#202323" font-family="'Apercu-Light'" font-size="23.5385">worst area</text>
		</g>
		<g>
			<g>
				<path fill="none" stroke="#212222" stroke-miterlimit="10" d="M203.3,306.1c0,0,34-7.3,45.4,33.6"/>
				<g>
					<polygon fill="#212222" points="240.7,339.3 250.8,350.2 255.3,335.9 					"/>
				</g>
			</g>
		</g>
	</g>
	<g display="inline">
		<g>
			<text transform="matrix(1 0 0 1 427.4833 493.2546)" fill="#202323" font-family="'Apercu-Light'" font-size="23.5385">best area</text>
		</g>
		<g>
			<g>
				<path fill="none" stroke="#212222" stroke-miterlimit="10" d="M415.3,486.3c0,0-34,7.3-45.4-33.6"/>
				<g>
					<polygon fill="#212222" points="377.9,453.1 367.8,442.2 363.3,456.6 					"/>
				</g>
			</g>
		</g>
	</g>
</g>
<rect y="243" fill="#FFFFFF" width="612" height="306"/>
<use xlink:href="#New_Symbol_40"  width="138.4" height="105.6" x="-69.2" y="-52.8" transform="matrix(2.1412 0 0 -2.1412 306.107 395.893)" overflow="visible"/>
<circle fill="#4887FF" cx="199.4" cy="507.7" r="12.8"/>
<g>
	<g>
		
			<line fill="none" stroke="#4887FF" stroke-width="9" stroke-linecap="round" stroke-miterlimit="10" x1="199.4" y1="508.3" x2="204.6" y2="507.1"/>
		
			<line fill="none" stroke="#4887FF" stroke-width="9" stroke-linecap="round" stroke-miterlimit="10" x1="211" y1="505.6" x2="445.7" y2="446.7"/>
		
			<line fill="none" stroke="#4887FF" stroke-width="9" stroke-linecap="round" stroke-miterlimit="10" x1="448.9" y1="446.1" x2="454.1" y2="444.6"/>
	</g>
</g>
<g>
	<path fill="#FFFFFF" stroke="#282B2B" stroke-linejoin="round" stroke-miterlimit="10" d="M450.2,474.3v-29.5
		c0-2.1,1.7-3.9,3.9-3.9s3.9,1.7,3.9,3.9v11.6h5.1c1.5,0,2.6,1.1,2.6,2.6h5.1c1.5,0,2.6,1.1,2.6,2.6h3.9c2.1,0,3.9,1.7,3.9,3.9v7.9
		c0,2.4-0.4,4.7-1.1,7.1l-4.1,14.6h-23.1c-3.9-5.1-13.9-22.3-13.9-22.3c-0.9-1.3-0.6-3,0.4-3.9c1.1-1.1,3-1.3,4.3-0.2L450.2,474.3z"
		/>
	
		<line fill="none" stroke="#282B2B" stroke-linecap="round" stroke-linejoin="round" stroke-miterlimit="10" x1="465.6" y1="458.9" x2="465.6" y2="464"/>
	
		<line fill="none" stroke="#282B2B" stroke-linecap="round" stroke-linejoin="round" stroke-miterlimit="10" x1="457.9" y1="455.1" x2="457.9" y2="464"/>
	
		<line fill="none" stroke="#282B2B" stroke-linecap="round" stroke-linejoin="round" stroke-miterlimit="10" x1="473.3" y1="461.5" x2="473.3" y2="466.6"/>
</g>
</svg>
