<?xml version="1.0" encoding="utf-8"?>
<!-- Generator: Adobe Illustrator 18.1.1, SVG Export Plug-In . SVG Version: 6.00 Build 0)  -->
<svg version="1.1" id="Layer_1" xmlns="http://www.w3.org/2000/svg" xmlns:xlink="http://www.w3.org/1999/xlink" x="0px" y="0px"
	 viewBox="163 324.5 286 143" enable-background="new 163 324.5 286 143" xml:space="preserve">
<symbol  id="New_Symbol_40" viewBox="-69.2 -52.8 138.4 105.6">
	<polygon fill="#CCCCCC" points="-68.9,22.8 -20.4,-5.1 -50.1,-52.5 	"/>
	<polygon fill="#CCCCCC" points="50.1,52.5 20.4,5.1 68.9,-22.8 	"/>
	<polygon fill="#999999" points="-68.9,22.8 -20.4,-5.1 20.4,5.1 50.1,52.5 	"/>
	<polygon fill="#FFFFFF" points="-50.1,-52.5 -20.4,-5.1 20.4,5.1 68.9,-22.8 	"/>
	<polygon fill="none" stroke="#4D4D4D" stroke-width="0.5" stroke-miterlimit="10" points="-68.9,22.8 -50.1,-52.5 68.9,-22.8 
		50.1,52.5 	"/>
	<g>
		<g>
			<polygon fill="#CCCCCC" stroke="#4D4D4D" stroke-width="0.5" stroke-miterlimit="10" points="11,10.8 14.7,-4.1 29.8,-0.6 
				26,14.3 			"/>
		</g>
		<g>
			<polygon fill="#333333" points="15.7,7.9 17.5,0.5 25.1,2.3 23.2,9.7 			"/>
		</g>
	</g>
</symbol>
<symbol  id="node" viewBox="-9 -9 18 18">
	<path fill="#FFFFFF" stroke="#F06953" stroke-width="3" stroke-miterlimit="10" d="M7.5,0c0,4.1-3.4,7.5-7.5,7.5S-7.5,4.1-7.5,0
		S-4.1-7.5,0-7.5S7.5-4.1,7.5,0z"/>
</symbol>
<g id="ins_x5F_1" display="none">
	<g display="inline">
		<g>
			<g>
				<path fill="none" stroke="#212222" stroke-miterlimit="10" d="M203.3,306.1c0,0,34-7.3,45.4,33.6"/>
				<g>
					<polygon fill="#212222" points="240.7,339.3 250.8,350.2 255.3,335.9 					"/>
				</g>
			</g>
		</g>
	</g>
	<g display="inline">
		<g>
			<g>
				<path fill="none" stroke="#212222" stroke-miterlimit="10" d="M415.3,486.3c0,0-34,7.3-45.4-33.6"/>
				<g>
					<polygon fill="#212222" points="377.9,453.1 367.8,442.2 363.3,456.6 					"/>
				</g>
			</g>
		</g>
	</g>
</g>
<g id="Layer_2" display="none">
	<rect y="243" display="inline" fill="#FFFFFF" stroke="#000000" stroke-miterlimit="10" width="612" height="306"/>
	
		<use xlink:href="#New_Symbol_40"  width="138.4" height="105.6" x="-69.2" y="-52.8" transform="matrix(2.1411 0 0 -2.1411 306.107 395.893)" display="inline" overflow="visible"/>
	<g display="inline">
		<g>
			<g>
				
					<line fill="none" stroke="#51E0E0" stroke-width="4" stroke-miterlimit="10" stroke-dasharray="5.1183,3.071" x1="211" y1="505.6" x2="445.7" y2="446.7"/>
				<line fill="none" stroke="#51E0E0" stroke-width="4" stroke-miterlimit="10" x1="448.9" y1="446.1" x2="454.1" y2="444.6"/>
			</g>
		</g>
		<g>
			<path fill="#FFFFFF" stroke="#282B2B" stroke-linejoin="round" stroke-miterlimit="10" d="M449.2,474.3v-29.5
				c0-2.1,1.7-3.9,3.9-3.9s3.9,1.7,3.9,3.9v11.6h5.1c1.5,0,2.6,1.1,2.6,2.6h5.1c1.5,0,2.6,1.1,2.6,2.6h3.9c2.1,0,3.9,1.7,3.9,3.9
				v7.9c0,2.4-0.4,4.7-1.1,7.1l-4.1,14.6h-23.1C448,490,438,472.8,438,472.8c-0.9-1.3-0.6-3,0.4-3.9c1.1-1.1,3-1.3,4.3-0.2
				L449.2,474.3z"/>
		</g>
	</g>
</g>
<rect x="163" y="324.5" fill="#FFFFFF" width="286" height="143"/>
<use xlink:href="#New_Symbol_40"  width="138.4" height="105.6" x="-69.2" y="-52.8" transform="matrix(1.0006 0 0 -1.0006 291.05 392.95)" overflow="visible" enable-background="new    "/>
<polygon fill="none" stroke="#F06953" stroke-width="3" stroke-linejoin="round" stroke-miterlimit="10" points="270.6,398.1 
	240.9,445.5 359.9,415.8 327.6,397.2 300.4,403.1 297,391.5 "/>
<use xlink:href="#node"  width="18" height="18" x="-9" y="-9" transform="matrix(0.7 0 0 -0.7 240.8829 445.5272)" overflow="visible"/>
<use xlink:href="#node"  width="18" height="18" x="-9" y="-9" transform="matrix(0.7 0 0 -0.7 270.6272 398.0929)" overflow="visible" enable-background="new    "/>
<use xlink:href="#node"  width="18" height="18" x="-9" y="-9" transform="matrix(0.7 0 0 -0.7 297.0004 391.1144)" overflow="visible" enable-background="new    "/>
<use xlink:href="#node"  width="18" height="18" x="-9" y="-9" transform="matrix(0.7 0 0 -0.7 300.4116 403.0929)" overflow="visible" enable-background="new    "/>
<use xlink:href="#node"  width="18" height="18" x="-9" y="-9" transform="matrix(0.7 0 0 -0.7 327.5783 397.1144)" overflow="visible" enable-background="new    "/>
<use xlink:href="#node"  width="18" height="18" id="XMLID_1_" x="-9" y="-9" transform="matrix(0.7 0 0 -0.7 359.94 415.7634)" overflow="visible" enable-background="new    "/>
<g>
	<path fill="#FFFFFF" stroke="#282B2B" stroke-width="0.4673" stroke-linejoin="round" stroke-miterlimit="10" d="M299.2,418.7
		v-13.8c0-1,0.8-1.8,1.8-1.8c1,0,1.8,0.8,1.8,1.8v5.4h2.4c0.7,0,1.2,0.5,1.2,1.2h2.4c0.7,0,1.2,0.5,1.2,1.2h1.8c1,0,1.8,0.8,1.8,1.8
		v3.7c0,1.1-0.2,2.2-0.5,3.3l-1.9,6.8h-10.8c-1.8-2.4-6.5-10.4-6.5-10.4c-0.4-0.6-0.3-1.4,0.2-1.8c0.5-0.5,1.4-0.6,2-0.1
		L299.2,418.7z"/>
	
		<line fill="none" stroke="#282B2B" stroke-width="0.4673" stroke-linecap="round" stroke-linejoin="round" stroke-miterlimit="10" x1="306.4" y1="411.5" x2="306.4" y2="413.9"/>
	
		<line fill="none" stroke="#282B2B" stroke-width="0.4673" stroke-linecap="round" stroke-linejoin="round" stroke-miterlimit="10" x1="302.8" y1="409.7" x2="302.8" y2="413.9"/>
	
		<line fill="none" stroke="#282B2B" stroke-width="0.4673" stroke-linecap="round" stroke-linejoin="round" stroke-miterlimit="10" x1="310" y1="412.7" x2="310" y2="415.1"/>
</g>
</svg>
