<?xml version="1.0" encoding="utf-8"?>
<!-- Generator: Adobe Illustrator 18.1.1, SVG Export Plug-In . SVG Version: 6.00 Build 0)  -->
<svg version="1.1" id="Layer_1" xmlns="http://www.w3.org/2000/svg" xmlns:xlink="http://www.w3.org/1999/xlink" x="0px" y="0px"
	 viewBox="163 324.5 286 143" enable-background="new 163 324.5 286 143" xml:space="preserve">
<symbol  id="New_Symbol_40" viewBox="-69.2 -52.8 138.4 105.6">
	<polygon fill="#CCCCCC" points="-68.9,22.8 -20.4,-5.1 -50.1,-52.5 	"/>
	<polygon fill="#CCCCCC" points="50.1,52.5 20.4,5.1 68.9,-22.8 	"/>
	<polygon fill="#999999" points="-68.9,22.8 -20.4,-5.1 20.4,5.1 50.1,52.5 	"/>
	<polygon fill="#FFFFFF" points="-50.1,-52.5 -20.4,-5.1 20.4,5.1 68.9,-22.8 	"/>
	<polygon fill="none" stroke="#4D4D4D" stroke-width="0.5" stroke-miterlimit="10" points="-68.9,22.8 -50.1,-52.5 68.9,-22.8 
		50.1,52.5 	"/>
	<g>
		<g>
			<polygon fill="#CCCCCC" stroke="#4D4D4D" stroke-width="0.5" stroke-miterlimit="10" points="11,10.8 14.7,-4.1 29.8,-0.6 
				26,14.3 			"/>
		</g>
		<g>
			<polygon fill="#333333" points="15.7,7.9 17.5,0.5 25.1,2.3 23.2,9.7 			"/>
		</g>
	</g>
</symbol>
<g id="ins_x5F_1" display="none">
	<rect y="243" display="inline" fill="#FFFFFF" stroke="#000000" stroke-miterlimit="10" width="612" height="306"/>
	
		<use xlink:href="#New_Symbol_40"  width="138.4" height="105.6" x="-69.2" y="-52.8" transform="matrix(2.1411 0 0 -2.1411 306.107 395.893)" display="inline" overflow="visible"/>
	<g display="inline">
		<g>
			<g>
				<path fill="none" stroke="#212222" stroke-miterlimit="10" d="M203.3,306.1c0,0,34-7.3,45.4,33.6"/>
				<g>
					<polygon fill="#212222" points="240.7,339.3 250.8,350.2 255.3,335.9 					"/>
				</g>
			</g>
		</g>
	</g>
	<g display="inline">
		<g>
			<g>
				<path fill="none" stroke="#212222" stroke-miterlimit="10" d="M415.3,486.3c0,0-34,7.3-45.4-33.6"/>
				<g>
					<polygon fill="#212222" points="377.9,453.1 367.8,442.2 363.3,456.6 					"/>
				</g>
			</g>
		</g>
	</g>
</g>
<rect x="163" y="324.5" fill="#FFFFFF" width="286" height="143"/>
<use xlink:href="#New_Symbol_40"  width="138.4" height="105.6" x="-69.2" y="-52.8" transform="matrix(1.0006 0 0 -1.0006 306.05 385.95)" overflow="visible" enable-background="new    "/>
<circle fill="#4887FF" cx="256.2" cy="438.2" r="6"/>
<g>
	<g>
		
			<line fill="none" stroke="#4887FF" stroke-width="4.2059" stroke-linecap="round" stroke-miterlimit="10" x1="256.2" y1="438.5" x2="258.6" y2="437.9"/>
		
			<line fill="none" stroke="#4887FF" stroke-width="3" stroke-linecap="round" stroke-miterlimit="10" x1="261.6" y1="437.2" x2="371.3" y2="409.7"/>
		
			<line fill="none" stroke="#4887FF" stroke-width="4.2059" stroke-linecap="round" stroke-miterlimit="10" x1="372.8" y1="409.4" x2="375.2" y2="408.7"/>
	</g>
</g>
<g>
	<path fill="#FFFFFF" stroke="#282B2B" stroke-width="0.4673" stroke-linejoin="round" stroke-miterlimit="10" d="M373.4,422.6
		v-13.8c0-1,0.8-1.8,1.8-1.8c1,0,1.8,0.8,1.8,1.8v5.4h2.4c0.7,0,1.2,0.5,1.2,1.2h2.4c0.7,0,1.2,0.5,1.2,1.2h1.8c1,0,1.8,0.8,1.8,1.8
		v3.7c0,1.1-0.2,2.2-0.5,3.3l-1.9,6.8h-10.8c-1.8-2.4-6.5-10.4-6.5-10.4c-0.4-0.6-0.3-1.4,0.2-1.8c0.5-0.5,1.4-0.6,2-0.1
		L373.4,422.6z"/>
	
		<line fill="none" stroke="#282B2B" stroke-width="0.4673" stroke-linecap="round" stroke-linejoin="round" stroke-miterlimit="10" x1="380.6" y1="415.4" x2="380.6" y2="417.8"/>
	
		<line fill="none" stroke="#282B2B" stroke-width="0.4673" stroke-linecap="round" stroke-linejoin="round" stroke-miterlimit="10" x1="377" y1="413.6" x2="377" y2="417.8"/>
	
		<line fill="none" stroke="#282B2B" stroke-width="0.4673" stroke-linecap="round" stroke-linejoin="round" stroke-miterlimit="10" x1="384.2" y1="416.6" x2="384.2" y2="419"/>
</g>
</svg>
