<?xml version="1.0" encoding="utf-8"?>
<!-- Generator: Adobe Illustrator 18.1.1, SVG Export Plug-In . SVG Version: 6.00 Build 0)  -->
<svg version="1.1" xmlns="http://www.w3.org/2000/svg" xmlns:xlink="http://www.w3.org/1999/xlink" x="0px" y="0px"
	 viewBox="0 0 286 143" enable-background="new 0 0 286 143" xml:space="preserve">
<symbol  id="New_Symbol_40" viewBox="-69.2 -52.8 138.5 105.7">
	<polygon fill="#CCCCCC" points="-68.9,22.8 -20.4,-5.1 -50.1,-52.5 	"/>
	<polygon fill="#CCCCCC" points="50.1,52.5 20.4,5.1 68.9,-22.8 	"/>
	<polygon fill="#999999" points="-68.9,22.8 -20.4,-5.1 20.4,5.1 50.1,52.5 	"/>
	<polygon fill="#FFFFFF" points="-50.1,-52.5 -20.4,-5.1 20.4,5.1 68.9,-22.8 	"/>
	<polygon fill="none" stroke="#4D4D4D" stroke-width="0.5" stroke-miterlimit="10" points="-68.9,22.8 -50.1,-52.5 68.9,-22.8 
		50.1,52.5 	"/>
	<g>
		<g>
			<polygon fill="#CCCCCC" stroke="#4D4D4D" stroke-width="0.5" stroke-miterlimit="10" points="11,10.8 14.7,-4.1 29.8,-0.6 
				26,14.3 			"/>
		</g>
		<g>
			<polygon fill="#333333" points="15.7,7.9 17.5,0.5 25.1,2.3 23.2,9.7 			"/>
		</g>
	</g>
</symbol>
<g id="ins_x5F_1" display="none">
	<rect display="inline" fill="#FFFFFF" stroke="#000000" stroke-miterlimit="10" width="286" height="143"/>
	
		<use xlink:href="#New_Symbol_40"  width="138.5" height="105.7" x="-69.2" y="-52.8" transform="matrix(1 0 0 -1 143 71.5)" display="inline" overflow="visible"/>
	<g display="inline">
		<g>
			<text transform="matrix(1 0 0 1 18.0076 33.5181)" fill="#202323" font-family="'Apercu-Light'" font-size="11">worst area</text>
		</g>
		<g>
			<g>
				<path fill="none" stroke="#212222" stroke-miterlimit="10" d="M95,29.5c0,0,15.9-3.4,21.2,15.7"/>
				<g>
					<polygon fill="#212222" points="112.5,45 117.2,50.1 119.3,43.4 					"/>
				</g>
			</g>
		</g>
	</g>
	<g display="inline">
		<g>
			<text transform="matrix(1 0 0 1 199.7715 116.9492)" fill="#202323" font-family="'Apercu-Light'" font-size="11">best area</text>
		</g>
		<g>
			<g>
				<path fill="none" stroke="#212222" stroke-miterlimit="10" d="M194.1,113.7c0,0-15.9,3.4-21.2-15.7"/>
				<g>
					<polygon fill="#212222" points="176.6,98.2 171.9,93.1 169.8,99.8 					"/>
				</g>
			</g>
		</g>
	</g>
</g>
<g id="Layer_2">
	<rect fill="#FFFFFF" stroke="#000000" stroke-miterlimit="10" width="286" height="143"/>
	
		<use xlink:href="#New_Symbol_40"  width="138.5" height="105.7" x="-69.2" y="-52.8" transform="matrix(1 0 0 -1 143 71.5)" overflow="visible"/>
	<g>
		<circle fill="#51E0E0" stroke="#51E0E0" stroke-width="2" stroke-miterlimit="10" cx="93.2" cy="123.7" r="6"/>
		<g>
			<g>
				<line fill="none" stroke="#51E0E0" stroke-width="4" stroke-miterlimit="10" x1="93.2" y1="124" x2="95.6" y2="123.4"/>
				
					<line fill="none" stroke="#51E0E0" stroke-width="4" stroke-miterlimit="10" stroke-dasharray="5.1183,3.071" x1="98.6" y1="122.7" x2="208.3" y2="95.2"/>
				<line fill="none" stroke="#51E0E0" stroke-width="4" stroke-miterlimit="10" x1="209.8" y1="94.9" x2="212.2" y2="94.2"/>
			</g>
		</g>
		<g>
			<path fill="#FFFFFF" stroke="#282B2B" stroke-linejoin="round" stroke-miterlimit="10" d="M209.9,108.1V94.3c0-1,0.8-1.8,1.8-1.8
				c1,0,1.8,0.8,1.8,1.8v5.4h2.4c0.7,0,1.2,0.5,1.2,1.2h2.4c0.7,0,1.2,0.5,1.2,1.2h1.8c1,0,1.8,0.8,1.8,1.8v3.7
				c0,1.1-0.2,2.2-0.5,3.3l-1.9,6.8h-10.8c-1.8-2.4-6.5-10.4-6.5-10.4c-0.4-0.6-0.3-1.4,0.2-1.8c0.5-0.5,1.4-0.6,2-0.1L209.9,108.1z
				"/>
			
				<line fill="#FFFFFF" stroke="#282B2B" stroke-linecap="round" stroke-linejoin="round" stroke-miterlimit="10" x1="217.1" y1="100.9" x2="217.1" y2="103.3"/>
			
				<line fill="#FFFFFF" stroke="#282B2B" stroke-linecap="round" stroke-linejoin="round" stroke-miterlimit="10" x1="213.5" y1="99.1" x2="213.5" y2="103.3"/>
			
				<line fill="#FFFFFF" stroke="#282B2B" stroke-linecap="round" stroke-linejoin="round" stroke-miterlimit="10" x1="220.7" y1="102.1" x2="220.7" y2="104.5"/>
		</g>
	</g>
</g>
</svg>
