<?xml version="1.0" encoding="utf-8"?>
<!-- Generator: Adobe Illustrator 17.1.0, SVG Export Plug-In . SVG Version: 6.00 Build 0)  -->
<!DOCTYPE svg PUBLIC "-//W3C//DTD SVG 1.1//EN" "http://www.w3.org/Graphics/SVG/1.1/DTD/svg11.dtd">
<svg version="1.1" id="Layer_1" xmlns="http://www.w3.org/2000/svg" xmlns:xlink="http://www.w3.org/1999/xlink" x="0px" y="0px"
	 viewBox="0 0 40 40" enable-background="new 0 0 40 40" xml:space="preserve">
<g>
	<path fill="none" stroke="#000000" stroke-width="0.5" stroke-linecap="round" stroke-linejoin="round" stroke-miterlimit="10" d="
		M15.4,18c0.8-0.8,0.8-2,0-2.8l-2.1-2.1c-0.8-0.8-2-0.8-2.8,0l-1.2,1.2c-1,1-1.2,2.6-0.4,3.8c3.4,5.1,7.9,9.6,13,13
		c1.2,0.8,2.8,0.6,3.8-0.4l1.2-1.2c0.8-0.8,0.8-2,0-2.8l-2.1-2.1c-0.8-0.8-2-0.8-2.8,0l-0.7,0.7c-2.3-1.9-4.6-4.2-6.5-6.5L15.4,18z"
		/>
	<path fill="none" stroke="#000000" stroke-width="0.5" stroke-linecap="round" stroke-linejoin="round" stroke-miterlimit="10" d="
		M19.9,8.5c6.4,0,11.5,5.1,11.5,11.5"/>
	<path fill="none" stroke="#000000" stroke-width="0.5" stroke-linecap="round" stroke-linejoin="round" stroke-miterlimit="10" d="
		M19.9,12.5c4.1,0,7.5,3.4,7.5,7.5"/>
	<path fill="none" stroke="#000000" stroke-width="0.5" stroke-linecap="round" stroke-linejoin="round" stroke-miterlimit="10" d="
		M19.9,16.5c1.9,0,3.5,1.6,3.5,3.5"/>
</g>
</svg>
