<?xml version="1.0" encoding="utf-8"?>
<!-- Generator: Adobe Illustrator 18.1.1, SVG Export Plug-In . SVG Version: 6.00 Build 0)  -->
<svg version="1.1" id="Layer_1" xmlns="http://www.w3.org/2000/svg" xmlns:xlink="http://www.w3.org/1999/xlink" x="0px" y="0px"
	 viewBox="0 0 612 792" enable-background="new 0 0 612 792" xml:space="preserve">
<circle fill="none" cx="306.8" cy="396.4" r="41.3"/>
<g opacity="0.7">
	
		<circle fill="none" stroke="#212222" stroke-linecap="round" stroke-linejoin="round" stroke-miterlimit="10" cx="313.3" cy="389.7" r="12.7"/>
	
		<line fill="none" stroke="#212222" stroke-linecap="round" stroke-linejoin="round" stroke-miterlimit="10" x1="313.3" y1="394.7" x2="313.3" y2="396.4"/>
	
		<line fill="none" stroke="#212222" stroke-linecap="round" stroke-linejoin="round" stroke-miterlimit="10" x1="313.3" y1="382.9" x2="313.3" y2="384.6"/>
	<path fill="none" stroke="#212222" stroke-linecap="round" stroke-linejoin="round" stroke-miterlimit="10" d="M310.8,392.2
		c0,1.4,1.1,2.5,2.5,2.5c1.4,0,2.5-1.1,2.5-2.5c0-1.4-1.1-2.5-2.5-2.5c-1.4,0-2.5-1.1-2.5-2.5c0-1.4,1.1-2.5,2.5-2.5
		c1.4,0,2.5,1.1,2.5,2.5"/>
	
		<line fill="none" stroke="#212222" stroke-linecap="round" stroke-linejoin="round" stroke-miterlimit="10" x1="299.7" y1="408.3" x2="299.7" y2="410"/>
	
		<line fill="none" stroke="#212222" stroke-linecap="round" stroke-linejoin="round" stroke-miterlimit="10" x1="299.7" y1="396.4" x2="299.7" y2="398.1"/>
	<path fill="none" stroke="#212222" stroke-linecap="round" stroke-linejoin="round" stroke-miterlimit="10" d="M297.2,405.7
		c0,1.4,1.1,2.5,2.5,2.5c1.4,0,2.5-1.1,2.5-2.5c0-1.4-1.1-2.5-2.5-2.5c-1.4,0-2.5-1.1-2.5-2.5c0-1.4,1.1-2.5,2.5-2.5
		c1.4,0,2.5,1.1,2.5,2.5"/>
	<path fill="none" stroke="#212222" stroke-linecap="round" stroke-linejoin="round" stroke-miterlimit="10" d="M300.6,390.5
		c-0.3,0-0.6,0-0.9,0c-7,0-12.7,5.7-12.7,12.7c0,7,5.7,12.7,12.7,12.7c7,0,12.7-5.7,12.7-12.7c0-0.3,0-0.6,0-0.9"/>
</g>
</svg>
