<?xml version="1.0" encoding="utf-8"?>
<!-- Generator: Adobe Illustrator 18.1.1, SVG Export Plug-In . SVG Version: 6.00 Build 0)  -->
<svg version="1.1" id="Layer_1" xmlns="http://www.w3.org/2000/svg" xmlns:xlink="http://www.w3.org/1999/xlink" x="0px" y="0px"
	 viewBox="0 0 612 792" enable-background="new 0 0 612 792" xml:space="preserve">
<circle fill="none" cx="306.8" cy="396.8" r="41.3"/>
<g opacity="0.7">
	
		<rect x="289.3" y="399.2" fill="none" stroke="#212222" stroke-linejoin="round" stroke-miterlimit="10" width="6.2" height="12.3"/>
	<path fill="none" stroke="#212222" stroke-linejoin="round" stroke-miterlimit="10" d="M295.5,409.3c16.6,5.5,10.5,5.6,29.3-3.9
		c-1.6-1.6-2.9-2-4.6-1.5l-6.8,2.3"/>
	<path fill="none" stroke="#212222" stroke-linejoin="round" stroke-miterlimit="10" d="M295.5,400.8h4.6c3.6,0,6.2,2.3,6.9,3.1
		c0,0,2.3,0,4.6,0c2.5,0,2.5,3.1,0,3.1h-8.5"/>
	<path fill="none" stroke="#212222" stroke-linejoin="round" stroke-miterlimit="10" d="M299.1,395.7c-0.8-1.7-1.3-3.6-1.3-5.5
		c0-6.8,5.5-12.3,12.3-12.3c6.8,0,12.3,5.5,12.3,12.3c0,4.5-2.4,8.5-6,10.6"/>
	<path fill="none" stroke="#212222" stroke-linejoin="round" stroke-miterlimit="10" d="M319.2,381.8c0,0-0.5,2.9-2.7,4
		c-2.1-0.5-4.3,1.1-3.8,1.1c0.5,0,1.1,2.1,1.1,2.1c0.5,0.5,1.6,0,1.6,0c1.3,1.3-2.1,3.8-2.1,4.3c0,0.5,1.3,0.8,0.5,1.6
		c-0.8,0.8-1.6,1.1-1.6,1.1c0,2.7-2.7,2.7-3.2,2.7s-1.6-2.1-1.6-2.7c0-0.5,0.5-1.1,0.5-1.6c0-0.5-1.1-1.6-1.1-1.6
		c0-2.1-1.6-1.6-3.2-1.6c-1.6,0-1.6-2.1-1.6-2.1s0-3.8,2.7-4.3c2.7-0.5,2.7,0.5,2.7,0.5c1.1,1.1,3.2,0,4.3,0c0,0,0.5-3.8-0.5-3.2
		c-1.1,0.5-2,0.1-2.1-1.1c-0.2-1.7,4.7-2.7,4.7-2.7"/>
</g>
</svg>
