<?xml version="1.0" encoding="utf-8"?>
<!-- Generator: Adobe Illustrator 18.1.1, SVG Export Plug-In . SVG Version: 6.00 Build 0)  -->
<svg version="1.1" id="Layer_1" xmlns="http://www.w3.org/2000/svg" xmlns:xlink="http://www.w3.org/1999/xlink" x="0px" y="0px"
	 viewBox="0 0 612 792" enable-background="new 0 0 612 792" xml:space="preserve">
<circle fill="none" cx="306.8" cy="396.4" r="41.3"/>
<g opacity="0.7">
	<path fill="none" stroke="#212222" stroke-linecap="round" stroke-linejoin="round" stroke-miterlimit="10" d="M301.7,393.9
		c-0.7,3.1,0.3,5.8,5.5,4.6c4.1,3.5,6.1,1.8,7-1.6c0.8-3.4-1.7-10.3-5.2-12.8C307,388.6,302.6,390,301.7,393.9z"/>
	
		<line fill="none" stroke="#212222" stroke-linecap="round" stroke-linejoin="round" stroke-miterlimit="10" x1="304" y1="411.3" x2="312" y2="411.3"/>
	
		<line fill="none" stroke="#212222" stroke-linecap="round" stroke-linejoin="round" stroke-miterlimit="10" x1="304" y1="414.5" x2="312" y2="414.5"/>
	
		<line fill="none" stroke="#212222" stroke-linecap="round" stroke-linejoin="round" stroke-miterlimit="10" x1="308" y1="414.5" x2="308" y2="416.1"/>
	<path fill="none" stroke="#212222" stroke-linecap="round" stroke-linejoin="round" stroke-miterlimit="10" d="M308,408.1
		c0,0-2.5-12.6,0.8-17.9"/>
	<path fill="none" stroke="#212222" stroke-linecap="round" stroke-linejoin="round" stroke-miterlimit="10" d="M322.4,392.9
		c0-7.5-6.4-13.6-14.4-13.6c-8,0-14.4,6.1-14.4,13.6c0,6.2,4.4,11.4,10.4,13.1v2.1h8V406C318,404.4,322.4,399.1,322.4,392.9z"/>
</g>
</svg>
