<?xml version="1.0" encoding="utf-8"?>
<!-- Generator: Adobe Illustrator 18.1.1, SVG Export Plug-In . SVG Version: 6.00 Build 0)  -->
<svg version="1.1" id="Layer_1" xmlns="http://www.w3.org/2000/svg" xmlns:xlink="http://www.w3.org/1999/xlink" x="0px" y="0px"
	 viewBox="0 268.7 611.8 257.3" enable-background="new 0 268.7 611.8 257.3" xml:space="preserve">
<g>
	<g>
		<path fill="#FFFFFF" d="M260.7,362h-8.3v74.1h11.1l0-71.3C263.5,363.2,262.2,362,260.7,362"/>
		<path fill="#FFFFFF" d="M299.9,421.8c0,0-5.4,5.5-12.4,5.5c-6.9,0-8.2-4.8-8.2-7.7c0-2.9,0.9-7.7,9.6-7.7c1.4,0,11,0,11,0V421.8z
			 M288.6,381.3c0,0-8.1-0.5-16.4,3.5v9.9c0,0,7.1-3.4,15.5-3.4c5.4,0,12.2,1.6,12.2,10.7h-11.3c-11.9,0-20.7,5.7-20.7,17.5
			c0,9.4,5.9,17.7,18,17.7c9.2,0,14-4.7,14-4.7v3.5H311v-34C311,387.1,302,381.3,288.6,381.3"/>
		<path fill="#FFFFFF" d="M222.8,427.4c-8.2,0-14-6.6-14-18.1c0-11.4,5.8-18.2,13.9-18.2c8.1,0,13.9,6.7,13.9,18.2
			C236.7,420.7,231.1,427.4,222.8,427.4 M222.8,381.2c-17.9,0-25.4,14.4-25.4,28.1c0,13.7,7.6,27.9,25.5,27.9
			c17.8,0,25.3-14.2,25.3-27.9C248.2,395.6,240.7,381.2,222.8,381.2"/>
		<rect x="405.3" y="382.6" fill="#FFFFFF" width="11.1" height="53.5"/>
		<path fill="#FFFFFF" d="M450.6,427.2c-4.5,0-7.8-1.7-7.8-6.7v-28h14.6l-4-10h-10.6l0-11c0-1.5-1.2-2.8-2.8-2.8h-8.3v13.8H422v10
			h9.7v30l0,0.2c0,6.5,4.1,14.5,17,14.5c7,0,11.6-2.1,13.3-2.8c-0.6-1.7-2.9-7.3-3.5-8.6C456.1,426.6,453.5,427.1,450.6,427.2"/>
		<path fill="#FFFFFF" d="M338.8,381.3c-13.4,0-22.4,5.9-22.4,20.8v34h11.1l0-34c0-9.1,6.8-10.7,12.2-10.7c1.7,0,3.4,0.1,5,0.4
			c0.2-1.9,0.5-3.8,0.9-5.6c0.3-1.4,0.7-2.8,1.1-4.1C342.1,381.1,338.8,381.3,338.8,381.3"/>
		<path fill="#FFFFFF" d="M500.2,382.6l-15.3,37.5L470,382.6h-11.4l20.5,50.9l-8.9,20.9h9.5c1.1,0,2-0.6,2.5-1.6l29.3-70.3H500.2z"
			/>
		<path fill="#FFFFFF" d="M361.6,399c0-25.9,17.1-27.9,21.3-27.9c6.4,0,10.8,1.8,13.1,2.8c0.5-1.2,3.9-9.9,3.9-9.9
			c-1.3-0.5-8.1-3.4-17-3.4c-6.4,0-33.8,3-33.8,38.4s26.6,38.2,33.6,38.2c8.6,0,16-3.1,17.2-3.5v-11.1c-3,1.2-9,4-17.1,4
			C379,426.6,361.6,425,361.6,399"/>
		<rect x="405.3" y="365.5" fill="#FFFFFF" width="11.1" height="11.2"/>
		<path fill="#FFFFFF" d="M171.1,393.2c-9.4-2.3-14.3-4.4-14.3-10.8c0-5,2.3-11,13.9-11c7.2,0,13.4,2.3,16.4,3.4
			c0.5-1.1,3.8-9.7,3.8-9.7s-8-4.4-20.6-4.4c-14.6,0-25.4,7.7-25.4,22.2c0,14.1,10.1,18.2,22.6,20.9c10,2.2,14.3,4.6,14.3,11
			c0,6.1-2.6,11.4-16,11.4c-12.8,0-21.1-4.9-21.1-4.9v11.1c3.5,2.4,12.1,4.8,20.6,4.8c21.2,0,28.4-11.3,28.4-22.7
			C193.7,400,183.4,396,171.1,393.2"/>
	</g>
</g>
</svg>
