<?xml version="1.0" encoding="utf-8"?>
<!-- Generator: Adobe Illustrator 16.0.4, SVG Export Plug-In . SVG Version: 6.00 Build 0)  -->
<!DOCTYPE svg PUBLIC "-//W3C//DTD SVG 1.1//EN" "http://www.w3.org/Graphics/SVG/1.1/DTD/svg11.dtd">
<svg version="1.1" id="Layer_1" xmlns="http://www.w3.org/2000/svg" xmlns:xlink="http://www.w3.org/1999/xlink" x="0px" y="0px"
	 width="611.796px" height="257.303px" viewBox="0 0 611.796 257.303" enable-background="new 0 0 611.796 257.303"
	 xml:space="preserve">
<path fill="#00833E" d="M400.787,156.893c-2.592-1.144-4.875-2.875-6.802-5.146c-2.005-2.353-3.614-5.295-4.778-8.748
	c-1.174-3.459-1.768-7.676-1.768-12.53c0-4.562,0.562-8.723,1.674-12.344c1.105-3.588,2.666-6.596,4.629-8.936
	c1.984-2.34,4.326-4.125,6.961-5.326c2.637-1.188,5.467-1.797,8.412-1.797c2.771,0,5.979,0.5,8.102,1.004
	c1.162,0.275,3.613,1.205,5.873,2.09l3.389-10.331c-1.332-0.55-2.65-1.05-3.938-1.445c-1.898-0.571-3.975-1.045-6.166-1.409
	c-2.217-0.367-4.621-0.557-7.154-0.557c-5.133,0-9.84,0.9-13.991,2.672c-4.183,1.776-7.843,4.391-10.877,7.773
	c-1.696,1.902-3.164,4.02-4.42,6.302c-1.513,3.144-4.958,11.461-5.081,22.157c-0.001,0.049-0.006,0.096-0.006,0.146
	c0,6.244,0.835,11.858,2.486,16.694c1.666,4.87,4.049,9.003,7.082,12.271c3.051,3.283,6.721,5.793,10.912,7.453
	c4.17,1.646,8.795,2.482,13.744,2.482c3,0,5.482-0.193,7.393-0.562c1.889-0.375,3.941-0.91,6.098-1.604
	c1.48-0.473,2.811-0.956,3.98-1.443v-11.326c-3.031,1.26-6.393,2.563-8.422,3.073C413.326,158.714,405.82,159.116,400.787,156.893z"
	/>
<g>
	<path fill="#00833E" d="M530.732,159.459c2.869,0,5.117,2.257,5.117,5.094c0,2.85-2.246,5.088-5.117,5.088
		c-2.893,0-5.133-2.238-5.133-5.088C525.601,161.716,527.841,159.459,530.732,159.459L530.732,159.459z M530.707,160.329
		c-2.342,0-4.182,1.862-4.182,4.224c0,2.371,1.84,4.21,4.207,4.21c2.359,0,4.186-1.839,4.186-4.21c0-2.359-1.854-4.224-4.186-4.224
		H530.707z M528.626,161.523h1.854c1.094,0,1.631,0.183,2.045,0.457c0.402,0.27,0.662,0.692,0.662,1.274
		c0,0.938-0.705,1.415-1.336,1.627l1.646,2.599h-1.379l-1.479-2.451h-0.74v2.451h-1.273V161.523z M529.9,164.254h0.807
		c0.732,0,1.176-0.374,1.176-0.971c0-0.76-0.672-0.911-1.414-0.911H529.9V164.254z"/>
</g>
<g>
	<path fill="#00833E" d="M269.176,129.594c-1.18-3.498-2.904-6.558-5.127-9.086c-2.234-2.545-5.007-4.537-8.24-5.925
		c-3.213-1.375-6.861-2.075-10.85-2.075c-3.918,0-7.523,0.7-10.719,2.075c-3.209,1.388-5.979,3.38-8.232,5.922
		c-2.238,2.524-3.991,5.579-5.207,9.075c-1.208,3.474-1.82,7.382-1.82,11.622c0,4.198,0.592,8.088,1.762,11.556
		c1.181,3.505,2.916,6.557,5.16,9.067c2.255,2.524,5.025,4.506,8.23,5.886c3.194,1.379,6.854,2.076,10.881,2.076
		c3.916,0,7.514-0.697,10.691-2.076c3.189-1.383,5.948-3.362,8.203-5.886c2.237-2.503,3.988-5.55,5.21-9.056
		c1.204-3.472,1.816-7.363,1.816-11.567C270.935,136.97,270.344,133.064,269.176,129.594z M245.014,159.665
		c-2.059,0-3.971-0.402-5.684-1.192c-1.711-0.791-3.22-1.966-4.484-3.486c-1.283-1.549-2.294-3.491-3.012-5.776
		c-0.73-2.324-1.1-5.019-1.1-8.007c0-3.021,0.369-5.733,1.1-8.059c0.718-2.291,1.729-4.252,2.995-5.817
		c1.247-1.535,2.743-2.712,4.445-3.497c1.715-0.795,3.63-1.198,5.685-1.198c2.055,0,3.969,0.403,5.68,1.195
		c1.707,0.788,3.201,1.965,4.447,3.5c1.268,1.565,2.279,3.526,2.997,5.817c0.731,2.324,1.099,5.037,1.099,8.059
		c0,2.988-0.367,5.683-1.099,8.007c-0.718,2.291-1.726,4.235-2.997,5.783c-1.243,1.521-2.732,2.694-4.42,3.479
		C248.971,159.266,247.068,159.665,245.014,159.665z"/>
</g>
<g>
	<path fill="#00833E" d="M335.41,127.643c-0.254-1.519-0.688-2.934-1.289-4.218c-1.576-3.31-4.188-5.998-7.76-7.989
		c-3.521-1.963-8.066-2.957-13.511-2.957c-1.493,0-3.007,0.074-4.495,0.225s-2.931,0.365-4.281,0.646
		c-1.344,0.281-2.647,0.623-3.875,1.021c-1.238,0.397-2.34,0.838-3.277,1.308l-0.813,0.411v10.113l1.998-0.763
		c2.2-0.84,4.441-1.502,6.655-1.974c2.187-0.466,4.558-0.7,7.058-0.7c3.237,0,5.814,0.514,7.648,1.525
		c1.804,0.998,3.125,2.252,3.914,3.709c0.361,0.693,0.623,1.516,0.777,2.439c0.166,1.004,0.252,3.285,0.252,3.285
		s-3.629,0-12.271-0.002c-2.964-0.003-5.726,0.406-8.195,1.211c-2.515,0.818-4.703,2.008-6.504,3.536
		c-1.823,1.548-3.262,3.455-4.274,5.677c-1.004,2.211-1.516,4.737-1.516,7.508c0,2.789,0.455,5.334,1.357,7.562
		c0.905,2.253,2.203,4.188,3.854,5.762c1.645,1.567,3.631,2.772,5.902,3.582c2.235,0.797,4.713,1.196,7.365,1.196
		c1.957,0,3.83-0.213,5.566-0.637c1.729-0.427,3.342-0.998,4.805-1.711c1.469-0.716,2.791-1.544,3.922-2.464
		c0.312-0.248,0.607-0.498,0.885-0.752v4.205h10.479v-35.92C335.787,130.744,335.662,129.119,335.41,127.643z M324.412,143.711
		v10.254c-0.351,0.322-0.801,0.723-1.351,1.189c-0.78,0.666-1.751,1.35-2.884,2.026c-1.112,0.673-2.411,1.255-3.854,1.744
		c-1.389,0.47-2.923,0.709-4.556,0.709c-1.216,0-2.366-0.168-3.427-0.501c-1.002-0.314-1.877-0.799-2.601-1.438
		c-0.713-0.627-1.283-1.444-1.699-2.43c-0.423-1.005-0.643-2.221-0.643-3.611c0-2.682,0.799-4.588,2.441-5.826
		c1.749-1.317,4.27-1.922,7.487-1.984C319.626,143.723,324.412,143.711,324.412,143.711z"/>
</g>
<g>
	<path fill="#00833E" d="M283.415,92.72h-8.214v75.71h11.371V96.23v-0.968c-0.223-1.396-1.389-2.465-2.826-2.543H283.415z"/>
</g>
<path fill="#00833E" d="M529.21,113.845l-15.611,38.398l-15.207-38.398h-11.609l20.951,52.046l-10.012,23.412h9.438
	c-0.049-0.004-0.1-0.018-0.146-0.021l0.254,0.004l0.008-0.008c0.031,0,0.059,0.008,0.092,0.008c0.441,0,0.865-0.102,1.24-0.278
	c0.643-0.305,1.15-0.835,1.434-1.489l0.008-0.017l30.789-73.656L529.21,113.845L529.21,113.845z"/>
<path fill="#00833E" d="M209.586,107.163"/>
<rect x="432.216" y="113.814" fill="#00833E" width="11.375" height="54.562"/>
<path fill="#00833E" d="M486.753,158.013l-1.867,0.517c-0.986,0.271-2.088,0.494-3.27,0.666c-2.775,0.404-5.32,0.338-7.033-0.281
	c-0.947-0.34-1.723-0.809-2.307-1.391c-0.586-0.588-1.006-1.264-1.275-2.069c-0.291-0.853-0.438-1.81-0.438-2.839v-28.621h14.893
	l-4.1-10.18h-10.793v-10.998v-0.449c-0.115-1.477-1.318-2.641-2.816-2.678h-0.137h-8.422v14.125h-9.941v10.18h9.941v29.924
	c0,2.337,0.359,4.502,1.068,6.43c0.73,1.984,1.85,3.701,3.33,5.1c1.475,1.394,3.33,2.473,5.518,3.211
	c2.133,0.718,4.666,1.078,7.533,1.078h0.012h0.016c2.121-0.035,3.986-0.188,5.547-0.455c1.6-0.271,2.781-0.565,3.613-0.898
	l4.312-1.484L486.753,158.013z"/>
<rect x="432.193" y="96.328" fill="#00833E" width="11.373" height="11.842"/>
<g>
	<g>
		<g>
			<g>
				<g>
					<path fill="#EEAF12" d="M125.371,105.911c0,0-1.387-5.661-3.248-8.567c-1.867-2.904-3.322-3.214-4.393-3.197
						c-1.062,0.023-1.682,0.752-0.988,2.108C117.426,97.626,121.4,102.646,125.371,105.911z"/>
				</g>
			</g>
		</g>
		<g>
			<g>
				<g>
					<path fill="#EEAF12" d="M121.307,108.621c0,0-4.051-6.59-7.072-9.065c-3.027-2.487-4.199-1.946-4.721-1.692
						c-0.518,0.264-1.023,1.844,0.967,3.92C112.465,103.854,115.588,105.927,121.307,108.621z"/>
				</g>
			</g>
		</g>
		<g>
			<g>
				<g>
					<path fill="#EEAF12" d="M119.623,114.445c0,0-5.203-5.094-8.355-6.855c-3.174-1.738-4.146-1.854-4.972-0.927
						c-0.817,0.924,0.207,3.251,0.399,3.575C106.887,110.566,108.717,113.482,119.623,114.445z"/>
				</g>
			</g>
		</g>
		<g>
			<g>
				<g>
					<path fill="#EEAF12" d="M130.803,106.439c0,0,0.684-4.642-0.482-7.604c0,0-0.718-2.657-3.357-3.337
						c-1.617-0.367-1.784,0.893-1.414,2.005C125.926,98.605,127.848,102.809,130.803,106.439z"/>
				</g>
			</g>
		</g>
		<g>
			<g>
				<g>
					<path fill="#EEAF12" d="M136.893,109.279c0,0,2.028-1.617,2.443-3.653c0.418-2.033-0.238-3.715-1.946-4.863
						c-1.714-1.151-2.474-0.11-2.549,0.769C134.752,102.393,135.439,106.095,136.893,109.279z"/>
				</g>
			</g>
		</g>
		<g>
			<g>
				<g>
					<path fill="#EEAF12" d="M142.557,114.12c0,0-0.171-3.226,0.554-5.499c0.281-0.954,1.235-1.246,1.921-0.834
						c0.686,0.406,2.5,2.385,2.58,3.079c0.078,0.692,0.006,1.343-0.644,1.827C146.312,113.178,144.955,113.931,142.557,114.12z"/>
				</g>
			</g>
		</g>
		<g>
			<g>
				<g>
					<path fill="#EEAF12" d="M146.662,119.648c0,0,1.424-2.58,3.197-3.479c1.211-0.622,2.252,0.497,2.406,0.74
						c0.153,0.235,1.07,1.547,1.25,2.358c0.179,0.827-0.242,1.604-1.404,1.635C150.946,120.941,147.925,120.238,146.662,119.648z"/>
				</g>
			</g>
		</g>
		<g>
			<g>
				<g>
					<path fill="#EEAF12" d="M149.127,125.426c0,0,3.236-1.348,5.182-0.869c1.952,0.471,2.402,2.006,2.51,2.473
						c0.123,0.457,0.572,2.688-1.059,2.314C154.123,128.984,151.191,127.27,149.127,125.426z"/>
				</g>
			</g>
		</g>
		<g>
			<g>
				<g>
					<path fill="#EEAF12" d="M149.492,131.035c0,0,4.543,0.896,6.014,1.853c1.475,0.935,2.607,2.101,2.386,3.872
						c0,0-0.112,1.674-1.259,1.186C155.491,137.459,153.344,136.225,149.492,131.035z"/>
				</g>
			</g>
		</g>
		<g>
			<g>
				<g>
					<path fill="#EEAF12" d="M147.527,135.438c0,0,3.955,2.004,6.521,4.697c2.567,2.664,1.347,4.143,1.19,4.321
						c-0.148,0.185-0.934,0.815-1.859,0.004C152.451,143.671,150.924,142.627,147.527,135.438z"/>
				</g>
			</g>
		</g>
		<g>
			<g>
				<g>
					<path fill="#EEAF12" d="M143.825,137.629c0,0,4.691,5.354,5.246,6.334c0.571,0.975,1.474,2.643,1.398,3.562
						c-0.089,0.912-0.878,1.838-2.108,1.455c-1.223-0.398-2.215-2.043-2.636-3.103C145.305,144.827,144.248,142.756,143.825,137.629
						z"/>
				</g>
			</g>
		</g>
		<g>
			<g>
				<g>
					<path fill="#EEAF12" d="M138.397,137.643c0,0,2.611,5.723,2.946,7.024c0.333,1.29,1.181,3.699,0.117,4.728
						c-1.07,1.02-2.998-0.311-3.486-0.888c-0.488-0.604-1.541-1.681-1.236-5.495C136.848,141.052,138.331,137.75,138.397,137.643z"
						/>
				</g>
			</g>
		</g>
		<g>
			<g>
				<g>
					<path fill="#EEAF12" d="M131.699,134.34c0,0,1.021,5.271,0.426,7.996c-0.604,2.717-1.641,3.359-3.385,2.406
						c-1.75-0.963-3.173-2.248-2.889-4.158C126.137,138.677,128.262,136.248,131.699,134.34z"/>
				</g>
			</g>
		</g>
		<g>
			<g>
				<g>
					<path fill="#EEAF12" d="M125.155,128.288c0,0-3.909-0.185-6.776,0.356c-2.871,0.527-3.59,1.699-3.525,2.562
						c0.068,0.873,1.549,3.102,2.505,3.805c0.96,0.69,1.921,1.094,3.065,0.805S124.039,133.148,125.155,128.288z"/>
				</g>
			</g>
		</g>
		<g>
			<g>
				<g>
					<path fill="#EEAF12" d="M121.169,121.48c0,0-4.423-2.271-7.861-3.172c-3.446-0.902-5.106-0.869-5.325,0.629
						c-0.219,1.504,0.834,3.934,3.457,5.059C114.069,125.109,118.741,123.042,121.169,121.48z"/>
				</g>
			</g>
		</g>
	</g>
	<g>
		<g>
			<g>
				<g>
					<path fill="#EEAF12" d="M153.799,98.407c0,0-3.806-0.617-6.781,0.553c-2.981,1.175-1.955,4.133-1.355,5.157
						c0.61,1.02,2.79,3.824,4.348,4.621c1.562,0.787,2.828-0.418,3.293-2.479C153.781,104.207,153.947,101.621,153.799,98.407z"/>
				</g>
			</g>
		</g>
		<g>
			<g>
				<g>
					<path fill="#EEAF12" d="M99.152,65.379c0,0,11.988,11.459,14.672,15.014c2.695,3.549,4.845,7.027,3.346,8.442
						c-1.506,1.412-4.014,0.616-4.492,0.462c-0.479-0.15-2.229-0.758-4.943-3.797C105.008,82.486,102.038,76.068,99.152,65.379z"/>
				</g>
			</g>
		</g>
		<g>
			<g>
				<g>
					<path fill="#EEAF12" d="M78.361,69.486c0,0,19.496,10.398,25.633,17.26c3.389,4.072,2.787,5.627,1.752,6.975
						c-1.037,1.338-3.019,1.877-5.562,0.588C97.643,93.023,90.697,88.629,78.361,69.486z"/>
				</g>
			</g>
		</g>
		<g>
			<g>
				<g>
					<path fill="#EEAF12" d="M66.662,88.064c0,0,14.354,1.834,22.82,5.166c8.48,3.334,10.02,5.447,11.184,7.904
						c1.163,2.469,0.414,5.346-0.566,6.09c-0.975,0.748-3.301,1.346-7.809-0.824C87.771,104.232,83.533,102.334,66.662,88.064z"/>
				</g>
			</g>
		</g>
		<g>
			<g>
				<g>
					<path fill="#EEAF12" d="M70.48,118.33c0,0,8.955-5.117,17.625-6.121c8.664-1,12.232,2.037,14.027,4.303
						c1.804,2.246,3.027,6.189,2.09,7.75c-0.941,1.555-3.076,2.639-6.943,2.168C93.408,125.955,81.812,123.245,70.48,118.33z"/>
				</g>
			</g>
		</g>
		<g>
			<g>
				<g>
					<path fill="#EEAF12" d="M91.189,151.023c0,0,4.941-13.146,11.51-17.524c4.336-2.681,7.348-0.647,8.339,0.112
						c0.995,0.756,4.796,4.363,5.23,7.274c0.44,2.906-2.454,4.878-3.804,5.46C111.114,146.924,103.3,150.201,91.189,151.023z"/>
				</g>
			</g>
		</g>
		<g>
			<g>
				<g>
					<path fill="#EEAF12" d="M161.098,174.229c0,0-8.246-7.703-11.385-13.686c-2.498-4.596-0.846-6.771,0.69-7.466
						c1.534-0.691,2.929-0.415,4.247,0.809C155.975,155.126,158.783,158.979,161.098,174.229z"/>
				</g>
			</g>
		</g>
		<g>
			<g>
				<g>
					<path fill="#EEAF12" d="M139.133,83.47c0,0,1.872,4.88,2.747,9.124c0.884,4.249,0.292,6.008-0.597,6.297
						c-0.871,0.277-2.324-0.619-2.929-1.072c-0.604-0.449-4.136-2.383-4.62-6.741C133.617,88.812,134.823,86.004,139.133,83.47z"/>
				</g>
			</g>
		</g>
		<g>
			<g>
				<g>
					<path fill="#EEAF12" d="M120.82,71.648c0,0,6.014,9.473,7.299,12.103c1.281,2.625,3.012,6.517,1.951,7.745
						c-0.637,0.745-2.184,0.646-3.896-0.156c-1.701-0.801-4.525-2.244-6.068-7.277C118.568,79.023,120.429,72.886,120.82,71.648z"/>
				</g>
			</g>
		</g>
		<g>
			<g>
				<g>
					<path fill="#EEAF12" d="M119.127,172.744c0,0-1.968-9.123-1.257-17.637c0.374-5.709,3.306-7.909,4.42-7.991
						c1.11-0.065,3.243-0.073,5.991,2.155c2.742,2.237,3.66,5.06,2.479,8.822C129.574,161.84,124.795,168.008,119.127,172.744z"/>
				</g>
			</g>
		</g>
		<g>
			<g>
				<g>
					<path fill="#EEAF12" d="M143.735,179.077c0,0-5.165-8.194-7.424-15.899c-2.25-7.703,0.581-9.219,2.337-9.353
						c1.748-0.146,4.771,0.751,6.047,3.306C145.979,159.707,147.38,164.051,143.735,179.077z"/>
				</g>
			</g>
		</g>
	</g>
</g>
<path fill="#00833E" d="M372.335,114.102c0.108-0.304,0.234-0.595,0.346-0.893c-1.249-0.249-2.561-0.447-3.928-0.586
	c-1.487-0.148-3-0.225-4.492-0.225c-5.441,0-9.988,0.994-13.51,2.957c-3.574,1.991-6.184,4.681-7.762,7.99
	c-0.602,1.284-1.033,2.697-1.291,4.217c-0.246,1.477-0.375,3.103-0.375,4.838v35.922h11.197l0.178-32.844v-1.609
	c0-1.324,0.084-2.506,0.252-3.508c0.155-0.926,0.418-1.746,0.774-2.44c0.791-1.454,2.112-2.71,3.917-3.71
	c1.833-1.013,4.408-1.523,7.652-1.523c1.66,0,3.26,0.111,4.789,0.319C370.566,119.898,371.312,116.921,372.335,114.102z"/>
<path fill="#00833E" d="M197.951,155.834c1.475-0.882,2.611-2.055,3.477-3.583c0.85-1.511,1.281-3.472,1.281-5.83
	c0-1.871-0.359-3.405-1.068-4.567c-0.738-1.197-1.742-2.209-2.988-3.004c-1.314-0.836-2.871-1.535-4.626-2.072
	c-1.831-0.562-3.8-1.101-5.862-1.603c-2.744-0.647-5.494-1.394-8.152-2.215c-2.771-0.858-5.281-2.067-7.458-3.591
	c-2.244-1.572-4.069-3.622-5.428-6.09c-1.371-2.49-2.068-5.67-2.068-9.449c0-3.902,0.717-7.328,2.134-10.176
	c1.41-2.848,3.352-5.238,5.771-7.106c2.393-1.843,5.175-3.225,8.271-4.104c3.059-0.863,6.348-1.303,9.779-1.303
	c3.857,0,7.52,0.387,10.886,1.146c3.343,0.762,6.452,1.767,9.235,2.988l0.91,0.399c0,0-2.552,8.034-3.145,10.146
	c-2.174-0.836-5.549-2.012-7.819-2.59c-2.989-0.762-6.241-1.164-9.661-1.199c-2.498,0-4.7,0.277-6.529,0.828
	c-1.766,0.533-3.239,1.291-4.373,2.252c-1.107,0.935-1.94,2.082-2.479,3.412c-0.559,1.381-0.844,2.945-0.844,4.652
	c0,1.838,0.352,3.35,1.045,4.494c0.727,1.193,1.682,2.158,2.916,2.941c1.307,0.824,2.853,1.515,4.59,2.049
	c1.85,0.568,3.803,1.107,5.799,1.604c2.742,0.686,5.492,1.455,8.182,2.295c2.799,0.879,5.328,2.105,7.516,3.647
	c2.258,1.591,4.105,3.685,5.495,6.226c1.4,2.562,2.11,5.848,2.11,9.77c0,3.98-0.757,7.482-2.25,10.41
	c-1.494,2.931-3.59,5.373-6.234,7.258c-2.592,1.851-5.692,3.244-9.213,4.137c-3.461,0.875-7.289,1.316-11.376,1.316
	c-1.897,0-3.854-0.122-5.817-0.365c-1.947-0.236-3.849-0.562-5.648-0.971c-1.807-0.412-4.217-1.188-4.911-1.405
	c-0.572-3.198-2.592-9.983-4.15-13.206C174.812,158.245,190.677,159.846,197.951,155.834z"/>
</svg>
