<?xml version="1.0" encoding="utf-8"?>
<!-- Generator: Adobe Illustrator 18.1.1, SVG Export Plug-In . SVG Version: 6.00 Build 0)  -->
<svg version="1.1" id="Layer_1" xmlns="http://www.w3.org/2000/svg" xmlns:xlink="http://www.w3.org/1999/xlink" x="0px" y="0px"
	 viewBox="0 0 20 20" enable-background="new 0 0 20 20" xml:space="preserve">
<polygon opacity="0.3" points="10.7,18.9 10.5,18.9 0.1,17 0.1,10.3 10.6,10.3 "/>
<g>
	
		<polygon fill="none" stroke="#000000" stroke-width="0.7" stroke-linecap="round" stroke-linejoin="round" stroke-miterlimit="10" points="
		15.1,1.4 6.9,3.9 3.3,7.2 3.3,14.7 5.4,15.9 8,15 8,17.3 10.6,18.6 18.7,16.1 18.7,7.7 	"/>
	<g>
		
			<polygon fill="#74706C" stroke="#000000" stroke-width="0.2" stroke-linecap="round" stroke-linejoin="round" stroke-miterlimit="10" points="
			3.3,7.2 3.3,14.7 5.4,15.9 5.4,11.5 8,12.7 8,17.3 10.6,18.6 10.6,10.3 6.9,3.9 		"/>
		
			<polygon fill="#DDDDCD" stroke="#000000" stroke-width="0.2" stroke-linecap="round" stroke-linejoin="round" stroke-miterlimit="10" points="
			6.9,3.9 10.6,10.3 10.6,18.6 18.7,16.1 18.7,7.7 15.1,1.4 		"/>
		
			<polygon fill="#DDDDCD" stroke="#000000" stroke-width="0.2" stroke-linecap="round" stroke-linejoin="round" stroke-miterlimit="10" points="
			5.4,15.9 5.4,11.5 8,12.7 8,15 		"/>
		
			<polygon fill="#FFFFFF" stroke="#000000" stroke-width="0.2" stroke-linecap="round" stroke-linejoin="round" stroke-miterlimit="10" points="
			6.9,3.9 10.6,10.3 18.7,7.7 15.1,1.4 		"/>
		
			<line fill="none" stroke="#000000" stroke-width="0.2" stroke-linecap="round" stroke-linejoin="round" stroke-miterlimit="10" x1="11.1" y1="2.5" x2="14.8" y2="8.9"/>
		
			<line fill="none" stroke="#000000" stroke-width="0.2" stroke-linecap="round" stroke-linejoin="round" stroke-miterlimit="10" x1="9.3" y1="8.1" x2="17.5" y2="5.5"/>
		
			<line fill="none" stroke="#000000" stroke-width="0.2" stroke-linecap="round" stroke-linejoin="round" stroke-miterlimit="10" x1="8.1" y1="5.9" x2="16.2" y2="3.3"/>
	</g>
</g>
</svg>
