<?xml version="1.0" encoding="utf-8"?>
<!-- Generator: Adobe Illustrator 18.1.1, SVG Export Plug-In . SVG Version: 6.00 Build 0)  -->
<svg version="1.1"
	 id="Layer_1" xmlns:svg="http://www.w3.org/2000/svg" xmlns:dc="http://purl.org/dc/elements/1.1/" xmlns:cc="http://creativecommons.org/ns#" xmlns:inkscape="http://www.inkscape.org/namespaces/inkscape" xmlns:sodipodi="http://sodipodi.sourceforge.net/DTD/sodipodi-0.dtd" xmlns:rdf="http://www.w3.org/1999/02/22-rdf-syntax-ns#" inkscape:version="0.91 r13725" sodipodi:docname="map_pin_1.svg"
	 xmlns="http://www.w3.org/2000/svg" xmlns:xlink="http://www.w3.org/1999/xlink" x="0px" y="0px" viewBox="-11 10.6 22.1 26.4"
	 enable-background="new -11 10.6 22.1 26.4" xml:space="preserve">
<g id="New_Symbol">
	<polygon fill="none" stroke="#000000" stroke-linecap="round" stroke-linejoin="round" stroke-miterlimit="10" points="-9.8,29.5 
		-9.8,19.4 -4.9,14.7 4.9,11.7 9.8,20.5 9.8,31.9 0,34.9 -3.3,33.1 -3.3,29.9 -7,31.1 	"/>
	<g>
		
			<polygon fill="#8E8E8D" stroke="#000000" stroke-width="0.2544" stroke-linecap="round" stroke-linejoin="round" stroke-miterlimit="10" points="
			-9.8,19.4 -9.8,29.5 -7,31.1 -7,25.2 -3.3,26.7 -3.3,33.1 0,34.9 0,23.5 -4.9,14.7 		"/>
		
			<polygon fill="#C9C9C7" stroke="#000000" stroke-width="0.2544" stroke-linecap="round" stroke-linejoin="round" stroke-miterlimit="10" points="
			-4.9,14.7 0,23.5 0,34.9 9.8,31.9 9.8,20.5 4.9,11.7 		"/>
		
			<polygon fill="#FFFFFF" stroke="#000000" stroke-width="0.2544" stroke-linecap="round" stroke-linejoin="round" stroke-miterlimit="10" points="
			-4.9,14.7 0,13.2 1.6,16 -3.3,17.5 		"/>
		
			<polygon fill="#FFFFFF" stroke="#000000" stroke-width="0.2544" stroke-linecap="round" stroke-linejoin="round" stroke-miterlimit="10" points="
			0,13.2 4.9,11.7 6.5,14.5 1.6,16 		"/>
		
			<polygon fill="#FFFFFF" stroke="#000000" stroke-width="0.2544" stroke-linecap="round" stroke-linejoin="round" stroke-miterlimit="10" points="
			-3.3,17.5 1.6,16 3.2,18.8 -1.8,20.3 		"/>
		
			<polygon fill="#FFFFFF" stroke="#000000" stroke-width="0.2544" stroke-linecap="round" stroke-linejoin="round" stroke-miterlimit="10" points="
			1.6,16 6.5,14.5 8.1,17.3 3.2,18.8 		"/>
		
			<polygon fill="#FFFFFF" stroke="#000000" stroke-width="0.2544" stroke-linecap="round" stroke-linejoin="round" stroke-miterlimit="10" points="
			-1.8,20.4 3.2,18.9 4.9,22 0,23.5 		"/>
		
			<polygon fill="#FFFFFF" stroke="#000000" stroke-width="0.2544" stroke-linecap="round" stroke-linejoin="round" stroke-miterlimit="10" points="
			3.1,18.9 8.1,17.4 9.8,20.5 4.9,22 		"/>
		
			<polygon fill="#DDDDDD" stroke="#000000" stroke-width="0.2544" stroke-linecap="round" stroke-linejoin="round" stroke-miterlimit="10" points="
			-7,31.1 -7,25.2 -3.3,26.7 -3.3,29.9 		"/>
	</g>
</g>
</svg>
