<?xml version="1.0" encoding="utf-8"?>
<!-- Generator: Adobe Illustrator 18.1.1, SVG Export Plug-In . SVG Version: 6.00 Build 0)  -->
<svg version="1.1" id="Layer_1" xmlns="http://www.w3.org/2000/svg" xmlns:xlink="http://www.w3.org/1999/xlink" x="0px" y="0px"
	 viewBox="0 0 612 792" enable-background="new 0 0 612 792" xml:space="preserve">
<g>
	<g>
		
			<image overflow="visible" opacity="0.2" width="183" height="220" xlink:href="9E8F45E0151412B5.png"  transform="matrix(0.24 0 0 0.24 285.0193 369.5876)">
		</image>
		<g>
			<g>
				<path fill="#F5F2EB" d="M304.9,412.6c0.6,0.5,1.3,0.7,2.1,0.7c0.6,0,1.2-0.2,1.8-0.5l0.5-0.4c6.7-5,11.4-12.2,13.2-20.3
					c0,0,0-0.1,0-0.1c0.3-1.1,0.4-2.3,0.4-3.5c0-8.8-7.1-15.9-15.9-15.9c-8.8,0-15.9,7.1-15.9,15.9c0,1.1,0.1,2.2,0.3,3.3
					c0,0,0,0.1,0,0.1C293.2,400.2,298,407.5,304.9,412.6z"/>
			</g>
		</g>
	</g>
	<g opacity="0.9">
		<path fill="#F06953" d="M306.9,374.4c7.8,0,14.1,6.3,14.1,14.1c0,1.1-0.1,2.2-0.4,3.2c0,0,0,0.1,0,0.1
			c-1.8,7.6-6.2,14.4-12.5,19.1l-0.4,0.3c-0.6,0.3-1.3,0.3-1.9-0.1c-6.5-4.8-11-11.7-12.8-19.5c0,0,0-0.1,0-0.1c-0.2-1-0.3-2-0.3-3
			C292.8,380.7,299.2,374.4,306.9,374.4z"/>
	</g>
	<path fill="#F5F2EB" d="M306.9,393.5c2.7,0,5-2.2,5-5c0-2.7-2.2-5-5-5c-2.7,0-5,2.2-5,5C302,391.2,304.2,393.5,306.9,393.5z"/>
</g>
</svg>
