<?xml version="1.0" encoding="utf-8"?>
<!-- Generator: Adobe Illustrator 17.1.0, SVG Export Plug-In . SVG Version: 6.00 Build 0)  -->
<!DOCTYPE svg PUBLIC "-//W3C//DTD SVG 1.1//EN" "http://www.w3.org/Graphics/SVG/1.1/DTD/svg11.dtd">
<svg version="1.1" id="Layer_1" xmlns="http://www.w3.org/2000/svg" xmlns:xlink="http://www.w3.org/1999/xlink" x="0px" y="0px"
	 viewBox="0 0 36 36" enable-background="new 0 0 36 36" xml:space="preserve">
	<g opacity="0.8">
		<path fill="#FFFFFF" d="M18.5,17.8l0.2-0.4c0.4-0.5,0.7-1.1,0.9-1.4c0.2-0.4,0.4-0.9,0.5-1.4c0.2-0.5,0.2-1.1,0.2-1.8
			c0-1.4-0.2-2.3-0.7-3.1c-0.7-0.7-1.4-1.1-2.5-1.1c-0.7,0-1.3,0.2-2,0.4c-0.7,0.4-1.3,0.7-1.8,1.1C13.1,10.4,13,10.6,13,11
			c0,0.2,0,0.4,0.2,0.4c0.2,0,0.4,0.2,0.7,0.2c0.4,0,0.7,0.2,0.9,0.2c0.4,0.2,0.7,0.4,0.9,0.7c0.2,0.4,0.4,0.7,0.4,1.1
			c0,0.5-0.2,1.1-0.7,1.6c-0.5,0.4-1.1,0.5-1.6,0.5c-0.7,0-1.3-0.2-1.6-0.7c-0.5-0.5-0.7-1.3-0.7-2s0.2-1.4,0.7-2.2
			c0.4-0.7,1.1-1.3,1.8-1.8c1.1-0.5,2.3-0.9,3.8-0.9c1.1,0,2,0.2,2.9,0.4c0.9,0.2,1.6,0.5,2.3,1.1c0.7,0.4,1.1,0.9,1.4,1.6
			c0.4,0.5,0.5,1.3,0.5,2c0,0.9-0.4,1.8-0.9,2.5c-0.5,0.7-1.6,1.4-3.1,2c-0.7,0.4-1.3,0.5-1.6,0.9c-0.4,0.2-0.5,0.5-0.7,0.9
			c-0.2,0.4-0.2,0.7-0.4,1.3h-0.5c0-0.5,0.2-1.1,0.4-1.4C18,18.7,18.2,18.4,18.5,17.8z M17.6,23.4c0.7,0,1.3,0.2,1.6,0.7
			c0.4,0.4,0.7,0.9,0.7,1.6c0,0.5-0.2,1.1-0.7,1.6c-0.4,0.4-0.9,0.7-1.6,0.7c-0.5,0-1.1-0.2-1.6-0.7c-0.4-0.4-0.7-0.9-0.7-1.6
			c0-0.4,0.2-0.7,0.4-1.1c0.2-0.4,0.5-0.5,0.7-0.9C16.9,23.4,17.3,23.4,17.6,23.4z"/>
	</g>
</svg>
